<svg xmlns="http://www.w3.org/2000/svg" style="display: none;">

  <symbol id="icon-input-checkbox-true" viewBox="0 0 12 12">
    <path d="M11.8421 1.43912C11.8848 1.48067 11.9188 1.5304 11.942 1.58537C11.9652 1.64033 11.9772 1.69941 11.9772 1.7591C11.9772 1.81878 11.9652 1.87786 11.942 1.93283C11.9188 1.98779 11.8848 2.03752 11.8421 2.07907L8.28583 5.71307C8.24308 5.75462 8.2091 5.80435 8.18589 5.85932C8.16269 5.91428 8.15073 5.97336 8.15073 6.03305C8.15073 6.09273 8.16269 6.15181 8.18589 6.20678C8.2091 6.26174 8.24308 6.31147 8.28583 6.35302L11.8649 9.94131C11.9076 9.98286 11.9416 10.0326 11.9648 10.0876C11.988 10.1425 12 10.2016 12 10.2613C12 10.321 11.988 10.3801 11.9648 10.435C11.9416 10.49 11.9076 10.5397 11.8649 10.5813L10.5655 11.8726C10.477 11.9545 10.3611 12 10.2406 12C10.1202 12 10.0042 11.9545 9.91579 11.8726L6.31391 8.29573C6.27149 8.25254 6.22092 8.21824 6.16515 8.19483C6.10938 8.17141 6.04952 8.15936 5.98906 8.15936C5.9286 8.15936 5.86874 8.17141 5.81297 8.19483C5.7572 8.21824 5.70663 8.25254 5.66421 8.29573L2.08513 11.8612C1.99669 11.9431 1.88069 11.9886 1.76028 11.9886C1.63987 11.9886 1.52388 11.9431 1.43543 11.8612L0.136018 10.5813C0.0929388 10.5387 0.0587282 10.488 0.0353769 10.4321C0.0120256 10.3762 0 10.3162 0 10.2556C0 10.195 0.0120256 10.1349 0.0353769 10.079C0.0587282 10.0231 0.0929388 9.97242 0.136018 9.92988L3.72649 6.33017C3.76957 6.28763 3.80378 6.23693 3.82713 6.18102C3.85049 6.12511 3.86251 6.06509 3.86251 6.00448C3.86251 5.94386 3.85049 5.88385 3.82713 5.82793C3.80378 5.77202 3.76957 5.72132 3.72649 5.67879L0.136018 2.0905C0.0929388 2.04797 0.0587282 1.99727 0.0353769 1.94135C0.0120256 1.88544 0 1.82543 0 1.76481C0 1.70419 0.0120256 1.64418 0.0353769 1.58827C0.0587282 1.53235 0.0929388 1.48166 0.136018 1.43912L1.44683 0.136368C1.48925 0.093178 1.53982 0.0588794 1.59559 0.035468C1.65136 0.0120565 1.71122 0 1.77168 0C1.83214 0 1.892 0.0120565 1.94777 0.035468C2.00354 0.0588794 2.05411 0.093178 2.09653 0.136368L5.6984 3.72466C5.78685 3.80658 5.90284 3.85207 6.02326 3.85207C6.14367 3.85207 6.25966 3.80658 6.34811 3.72466L9.89299 0.147795C9.93542 0.104606 9.98598 0.070307 10.0418 0.0468956C10.0975 0.0234842 10.1574 0.0114277 10.2178 0.0114277C10.2783 0.0114277 10.3382 0.0234842 10.3939 0.0468956C10.4497 0.070307 10.5003 0.104606 10.5427 0.147795L11.8421 1.43912Z" />
  </symbol>

  <symbol id="icon-input-checkbox-true" viewBox="0 0 8 8">
    <circle cx="4" cy="4" r="4" />
  </symbol>

  <symbol id="icon-login-password" viewBox="0 0 13 15">
    <path d="M10.8295 6.56V3.75C10.8295 2.75544 10.3733 1.80161 9.56141 1.09835C8.74947 0.395088 7.64825 0 6.5 0C5.35175 0 4.25053 0.395088 3.43859 1.09835C2.62666 1.80161 2.17052 2.75544 2.17052 3.75V6.56C1.59486 6.56 1.04278 6.75807 0.635729 7.11064C0.228679 7.46321 0 7.94139 0 8.44L0 13.13C0 13.626 0.227462 14.1016 0.632348 14.4523C1.03723 14.803 1.58638 15 2.15897 15H10.8295C11.4051 15 11.9572 14.8019 12.3643 14.4494C12.7713 14.0968 13 13.6186 13 13.12V8.44C12.9939 7.94394 12.763 7.46983 12.3569 7.11998C11.9508 6.77013 11.4022 6.5726 10.8295 6.57V6.56ZM7.07726 11.11V12.66C7.07726 12.7847 7.02009 12.9042 6.91833 12.9923C6.81657 13.0805 6.67855 13.13 6.53464 13.13C6.39072 13.13 6.2527 13.0805 6.15094 12.9923C6.04918 12.9042 5.99201 12.7847 5.99201 12.66V11.11C5.82794 11.0327 5.69096 10.9186 5.59547 10.7795C5.49998 10.6405 5.44951 10.4818 5.44938 10.32C5.43193 10.1959 5.44324 10.07 5.48265 9.94976C5.52205 9.8295 5.58876 9.71724 5.67886 9.61958C5.76897 9.52191 5.88066 9.4408 6.0074 9.38098C6.13414 9.32116 6.27338 9.28384 6.41698 9.2712C6.56057 9.25856 6.70564 9.27086 6.84368 9.30738C6.98172 9.3439 7.10997 9.4039 7.22091 9.48387C7.33185 9.56384 7.42326 9.66218 7.48978 9.77313C7.55631 9.88407 7.59662 10.0054 7.60835 10.13C7.61981 10.1929 7.61981 10.2571 7.60835 10.32C7.60822 10.4818 7.55775 10.6405 7.46226 10.7795C7.36677 10.9186 7.22979 11.0327 7.06572 11.11H7.07726ZM8.65897 6.56H4.34103V3.75C4.38099 3.27638 4.62641 2.8334 5.02798 2.51007C5.42954 2.18674 5.9575 2.00702 6.50577 2.00702C7.05404 2.00702 7.582 2.18674 7.98357 2.51007C8.38514 2.8334 8.63056 3.27638 8.67052 3.75V6.56H8.65897Z"/>
  </symbol>

  <symbol id="icon-login-username" viewBox="0 0 13 13">
    <path d="M12.7896 11.1417C12.6301 10.568 12.2994 10.0654 11.8475 9.71046C10.9334 9.12992 9.94998 8.68344 8.9239 8.3831C8.68273 8.31578 8.44729 8.22697 8.22007 8.11763C8.04506 7.96969 7.93216 7.75388 7.90605 7.51743V7.10191C8.66226 5.84887 9.06445 4.39044 9.06466 2.90052C9.1157 2.57752 9.10624 2.24694 9.03683 1.92785C8.96743 1.60876 8.83944 1.30748 8.66026 1.04137C8.48108 0.775268 8.25426 0.549607 7.99286 0.377404C7.73146 0.205201 7.44067 0.0898632 7.13725 0.0380426C6.92525 0.00774418 6.7104 0.00774418 6.49839 0.0380426C6.19299 -0.0196248 5.87986 -0.0116617 5.57739 0.0614645C5.27491 0.134591 4.98919 0.271405 4.73702 0.463874C4.48484 0.656342 4.27128 0.900584 4.10888 1.18225C3.94649 1.46392 3.83853 1.77734 3.79135 2.10411C3.75892 2.36845 3.75892 2.63618 3.79135 2.90052C3.81855 4.44582 4.28275 5.94636 5.12322 7.20579V7.44817C5.11209 7.56577 5.07848 7.67969 5.02448 7.78291C4.97047 7.88614 4.89721 7.97648 4.8092 8.04837C4.58467 8.17951 4.34901 8.28772 4.10537 8.37155C3.08312 8.6731 2.10078 9.11135 1.18177 9.67583C0.728157 10.0439 0.397828 10.5579 0.23972 11.1417C0.0681978 11.7437 -0.0122173 12.371 0.00150045 13H12.9953C13.0195 12.3729 12.9501 11.7456 12.7896 11.1417Z" />
  </symbol>

  <symbol id="icon-login" viewBox="0 0 14 14">
    <path d="M6.32481 8.08751L6.24349 8.1692L4.78989 9.64987C4.69512 9.74558 4.61619 9.85589 4.5561 9.97664C4.45915 10.1664 4.41455 10.3788 4.42691 10.5917C4.43928 10.8047 4.50817 11.0104 4.62643 11.1876C4.74469 11.3647 4.908 11.5068 5.09941 11.5992C5.29082 11.6915 5.50334 11.7307 5.71491 11.7126C6.02029 11.6923 6.30693 11.5575 6.51794 11.3348L8.39847 9.43543L10.1875 7.67905C10.2667 7.59853 10.3319 7.50536 10.3806 7.40334C10.4766 7.21332 10.5189 7.00048 10.5027 6.788C10.4866 6.57553 10.4127 6.37158 10.2892 6.19838C10.1469 6.02479 9.99438 5.87162 9.8419 5.70823L6.3553 2.24653C6.22144 2.11997 6.05905 2.02786 5.88203 1.97807C5.70502 1.92828 5.51863 1.92229 5.3388 1.96061C5.05647 2.00198 4.80127 2.15214 4.62725 2.37928C4.46239 2.57022 4.36579 2.81103 4.3528 3.06345C4.33381 3.25302 4.35983 3.44442 4.42875 3.62193C4.49766 3.79944 4.60749 3.958 4.74923 4.0846L6.3553 5.69802H1.039C0.748513 5.7471 0.485203 5.89929 0.296959 6.1269C0.176253 6.26453 0.0887099 6.42822 0.0411154 6.60531C-0.00647908 6.78239 -0.0128473 6.9681 0.0225042 7.14805C0.0817259 7.39715 0.221066 7.61968 0.418939 7.78117C0.635003 7.97943 0.919293 8.08561 1.21181 8.0773H6.29431L6.32481 8.08751ZM11.6106 7.00509V11.0182C11.6125 11.1187 11.5892 11.2181 11.5431 11.3073C11.4969 11.3964 11.4293 11.4726 11.3463 11.5288C11.2232 11.6106 11.0769 11.65 10.9296 11.6411H9.6386C9.37356 11.7048 9.13737 11.8558 8.96771 12.07C8.87025 12.1938 8.79816 12.3357 8.75561 12.4876C8.71305 12.6395 8.70087 12.7984 8.71978 12.955C8.73868 13.1117 8.78829 13.263 8.86574 13.4003C8.94318 13.5376 9.04694 13.6581 9.17101 13.7549C9.36978 13.9152 9.6175 14.0018 9.8724 14H11.5395C11.7983 13.9587 12.0488 13.8759 12.2815 13.7549C12.5096 13.6407 12.7216 13.4965 12.9117 13.326C13.2059 13.0822 13.4509 12.7841 13.6334 12.4478C13.8769 12.0043 13.9996 11.5042 13.9892 10.9978V2.64478C13.9575 2.32484 13.8679 2.0134 13.7249 1.72574C13.5171 1.29848 13.2145 0.924721 12.8406 0.633113C12.3256 0.223462 11.6881 0.000387472 11.0312 0H9.68943C9.43449 0.0513327 9.2028 0.183821 9.0287 0.377826C8.85077 0.566986 8.74106 0.810589 8.71711 1.06973C8.69315 1.32887 8.75633 1.5886 8.89655 1.80744C9.00064 1.98443 9.14952 2.13057 9.32807 2.23102C9.50661 2.33146 9.70845 2.38261 9.91306 2.37928H11.1125C11.2564 2.39698 11.39 2.46318 11.4915 2.56705C11.5931 2.67092 11.6566 2.80632 11.6716 2.95112V6.97446L11.6106 7.00509Z" />
    <path d="M6.32481 8.08751H1.24231C0.949788 8.09582 0.665498 7.98964 0.449434 7.79138C0.23832 7.63206 0.0876981 7.40509 0.0225042 7.14805C-0.0128473 6.9681 -0.00647908 6.78239 0.0411154 6.60531C0.0887099 6.42822 0.176253 6.26453 0.296959 6.1269C0.48249 5.89238 0.745928 5.73287 1.039 5.6776H6.3553L6.27398 5.5959L4.74923 4.0846C4.60749 3.958 4.49766 3.79944 4.42875 3.62193C4.35983 3.44442 4.33381 3.25302 4.3528 3.06345C4.36579 2.81103 4.46239 2.57022 4.62725 2.37928C4.80127 2.15214 5.05647 2.00198 5.3388 1.96061C5.51863 1.92229 5.70502 1.92828 5.88203 1.97807C6.05905 2.02786 6.22144 2.11997 6.3553 2.24653L9.80124 5.6776C9.95372 5.83077 10.1062 5.99415 10.2485 6.16775C10.3721 6.34095 10.4459 6.5449 10.4621 6.75737C10.4782 6.96984 10.436 7.18268 10.34 7.37271C10.2913 7.47472 10.226 7.5679 10.1469 7.64842L8.39847 9.43543L6.52811 11.3348C6.31709 11.5575 6.03046 11.6923 5.72507 11.7126C5.51351 11.7307 5.30098 11.6915 5.10957 11.5992C4.91817 11.5068 4.75485 11.3647 4.63659 11.1876C4.51834 11.0104 4.44945 10.8047 4.43708 10.5917C4.42471 10.3788 4.46932 10.1664 4.56626 9.97664C4.62636 9.85589 4.70528 9.74558 4.80006 9.64987L6.25365 8.1692L6.33497 8.09772L6.32481 8.08751Z" />
    <path d="M11.6106 7.00509V2.98176C11.5997 2.84105 11.5431 2.70784 11.4494 2.60266C11.3557 2.49748 11.2302 2.42616 11.0922 2.3997H9.89273C9.68812 2.40304 9.48628 2.35188 9.30774 2.25144C9.12919 2.151 8.98031 2.00485 8.87623 1.82786C8.74533 1.62472 8.68132 1.38538 8.69325 1.14369C8.71283 0.850671 8.84386 0.576447 9.0592 0.377826C9.23329 0.183821 9.46498 0.0513327 9.71992 0H11.0617C11.7186 0.000387472 12.3561 0.223462 12.8711 0.633113C13.2306 0.905262 13.5256 1.25399 13.7351 1.65426C13.8781 1.94192 13.9676 2.25336 13.9994 2.5733V10.9467C14.0098 11.4531 13.8871 11.9533 13.6436 12.3968C13.461 12.7331 13.216 13.0312 12.9219 13.275C12.7317 13.4454 12.5198 13.5897 12.2917 13.7038C12.059 13.8249 11.8084 13.9076 11.5496 13.9489C11.3362 13.9489 11.1125 13.9489 10.8991 13.9489H9.88256C9.62909 13.9648 9.37788 13.8927 9.17101 13.7447C8.93127 13.5535 8.77496 13.2761 8.73512 12.9712C8.69529 12.6663 8.77505 12.3577 8.95755 12.1108C9.12721 11.8966 9.36339 11.7456 9.62844 11.682H10.9194C11.0668 11.6909 11.213 11.6515 11.3362 11.5696C11.4191 11.5134 11.4867 11.4373 11.5329 11.3481C11.5791 11.2589 11.6023 11.1596 11.6004 11.0591V6.97446L11.6106 7.00509Z" />
  </symbol>

  <symbol id="icon-modal-close" viewBox="0 0 19 19">
    <path d="M18.75 2.27861C18.8177 2.34439 18.8715 2.42314 18.9082 2.51016C18.945 2.59719 18.9639 2.69073 18.9639 2.78524C18.9639 2.87974 18.945 2.97328 18.9082 3.06031C18.8715 3.14734 18.8177 3.22608 18.75 3.29186L13.1192 9.0457C13.0516 9.11148 12.9977 9.19022 12.961 9.27725C12.9243 9.36428 12.9053 9.45782 12.9053 9.55232C12.9053 9.64683 12.9243 9.74037 12.961 9.8274C12.9977 9.91442 13.0516 9.99317 13.1192 10.0589L18.7861 15.7404C18.8538 15.8062 18.9076 15.8849 18.9443 15.972C18.9811 16.059 19 16.1525 19 16.247C19 16.3415 18.9811 16.4351 18.9443 16.5221C18.9076 16.6091 18.8538 16.6879 18.7861 16.7537L16.7287 18.7983C16.5887 18.928 16.405 19 16.2143 19C16.0237 19 15.84 18.928 15.7 18.7983L9.99703 13.1349C9.92986 13.0665 9.84979 13.0122 9.76149 12.9751C9.67319 12.9381 9.57841 12.919 9.48268 12.919C9.38695 12.919 9.29218 12.9381 9.20387 12.9751C9.11557 13.0122 9.0355 13.0665 8.96833 13.1349L3.30146 18.7802C3.16142 18.9099 2.97777 18.9819 2.78711 18.9819C2.59646 18.9819 2.4128 18.9099 2.27276 18.7802L0.215361 16.7537C0.147153 16.6863 0.0929863 16.606 0.0560134 16.5175C0.0190405 16.429 0 16.334 0 16.238C0 16.142 0.0190405 16.047 0.0560134 15.9585C0.0929863 15.8699 0.147153 15.7897 0.215361 15.7223L5.90028 10.0228C5.96849 9.95542 6.02266 9.87514 6.05963 9.78661C6.0966 9.69808 6.11564 9.60307 6.11564 9.50709C6.11564 9.41111 6.0966 9.31609 6.05963 9.22756C6.02266 9.13903 5.96849 9.05876 5.90028 8.99141L0.215361 3.30996C0.147153 3.24261 0.0929863 3.16234 0.0560134 3.07381C0.0190405 2.98528 0 2.89026 0 2.79428C0 2.69831 0.0190405 2.60329 0.0560134 2.51476C0.0929863 2.42623 0.147153 2.34595 0.215361 2.27861L2.29081 0.215916C2.35798 0.147532 2.43805 0.0932256 2.52635 0.0561576C2.61465 0.0190895 2.70943 0 2.80516 0C2.90089 0 2.99566 0.0190895 3.08397 0.0561576C3.17227 0.0932256 3.25234 0.147532 3.31951 0.215916L9.02247 5.89737C9.16252 6.02708 9.34617 6.09911 9.53682 6.09911C9.72748 6.09911 9.91113 6.02708 10.0512 5.89737L15.6639 0.234009C15.7311 0.165626 15.8111 0.111319 15.8994 0.0742514C15.9877 0.0371833 16.0825 0.0180938 16.1783 0.0180938C16.274 0.0180938 16.3688 0.0371833 16.4571 0.0742514C16.5454 0.111319 16.6254 0.165626 16.6926 0.234009L18.75 2.27861Z" />
  </symbol>

  <symbol id="icon-social-fb" viewBox="0 0 11 23">
    <path d="M3.62378 1.13123C4.59355 0.376244 5.82388 -0.0252255 7.08674 0.00122876H11V3.86123H8.46979C8.19886 3.85027 7.93242 3.92836 7.7169 4.08187C7.50138 4.23537 7.35045 4.45457 7.29045 4.70123V7.28123H11C10.9142 8.52123 10.7212 9.76123 10.5604 11.0012H7.34405V22.0012H2.40156V11.0012H0V7.30123H2.38012V3.71123C2.43182 2.7359 2.87591 1.81461 3.62378 1.13123Z" />
  </symbol>

  <symbol id="icon-social-inst" viewBox="0 0 20 20">
    <path d="M18 0H2C1.46957 0 0.960859 0.210714 0.585786 0.585786C0.210714 0.960859 0 1.46957 0 2L0 18C0 18.5304 0.210714 19.0391 0.585786 19.4142C0.960859 19.7893 1.46957 20 2 20H18C18.5304 20 19.0391 19.7893 19.4142 19.4142C19.7893 19.0391 20 18.5304 20 18V2C20 1.46957 19.7893 0.960859 19.4142 0.585786C19.0391 0.210714 18.5304 0 18 0V0ZM10 6C10.7911 6 11.5645 6.2346 12.2223 6.67412C12.8801 7.11365 13.3928 7.73836 13.6955 8.46927C13.9983 9.20017 14.0775 10.0044 13.9231 10.7804C13.7688 11.5563 13.3878 12.269 12.8284 12.8284C12.269 13.3878 11.5563 13.7688 10.7804 13.9231C10.0044 14.0775 9.20017 13.9983 8.46927 13.6955C7.73836 13.3928 7.11365 12.8801 6.67412 12.2223C6.2346 11.5645 6 10.7911 6 10C6 8.93913 6.42143 7.92172 7.17157 7.17157C7.92172 6.42143 8.93913 6 10 6ZM2.5 18C2.43825 18.0041 2.37631 17.9959 2.31772 17.976C2.25914 17.956 2.20507 17.9247 2.15861 17.8839C2.11215 17.843 2.07423 17.7933 2.04701 17.7377C2.01979 17.6822 2.00382 17.6218 2 17.56V9H4.1C4.01687 9.32646 3.98316 9.66354 4 10C4 11.5913 4.63214 13.1174 5.75736 14.2426C6.88258 15.3679 8.4087 16 10 16C11.5913 16 13.1174 15.3679 14.2426 14.2426C15.3679 13.1174 16 11.5913 16 10C16.0168 9.66354 15.9831 9.32646 15.9 9H18V17.5C18.0041 17.5617 17.9959 17.6237 17.976 17.6823C17.956 17.7409 17.9247 17.7949 17.8839 17.8414C17.843 17.8878 17.7933 17.9258 17.7377 17.953C17.6822 17.9802 17.6218 17.9962 17.56 18H2.5ZM18 4.5C18.0041 4.56175 17.9959 4.62369 17.976 4.68228C17.956 4.74086 17.9247 4.79493 17.8839 4.84139C17.843 4.88785 17.7933 4.92577 17.7377 4.95299C17.6822 4.98021 17.6218 4.99618 17.56 5H15.5C15.4383 5.00407 15.3763 4.9959 15.3177 4.97597C15.2591 4.95604 15.2051 4.92473 15.1586 4.88385C15.1122 4.84297 15.0742 4.79332 15.047 4.73774C15.0198 4.68217 15.0038 4.62176 15 4.56V2.5C14.9959 2.43825 15.0041 2.37631 15.024 2.31772C15.044 2.25914 15.0753 2.20507 15.1161 2.15861C15.157 2.11215 15.2067 2.07423 15.2623 2.04701C15.3178 2.01979 15.3782 2.00382 15.44 2H17.5C17.5617 1.99593 17.6237 2.0041 17.6823 2.02403C17.7409 2.04396 17.7949 2.07527 17.8414 2.11615C17.8878 2.15703 17.9258 2.20668 17.953 2.26226C17.9802 2.31783 17.9962 2.37824 18 2.44V4.5Z" />
  </symbol>

  <symbol id="icon-social-vk" viewBox="0 0 27 15">
    <path d="M26.7852 13.4705L26.6932 13.3017C25.9568 12.1851 25.0533 11.181 24.0123 10.3226C23.6176 9.9675 23.2419 9.59296 22.8868 9.20048C22.7231 9.05323 22.6134 8.85804 22.5746 8.64469C22.5358 8.43134 22.57 8.21152 22.6719 8.01877C23.0199 7.38381 23.4385 6.78774 23.9202 6.24123L24.8309 5.07938C26.4476 2.994 27.1297 1.66994 26.8773 1.10722L26.7852 0.978128C26.6739 0.867803 26.5316 0.791806 26.376 0.75966C26.079 0.699976 25.7725 0.699976 25.4755 0.75966H21.4952C21.4056 0.730149 21.3085 0.730149 21.2189 0.75966H20.912C20.8515 0.795206 20.7992 0.842544 20.7585 0.898685C20.696 0.970665 20.6443 1.05091 20.605 1.13701C20.1842 2.19038 19.6849 3.2126 19.1111 4.19557C18.7632 4.75167 18.446 5.18861 18.1493 5.65534C17.9257 5.96934 17.6759 6.26494 17.4023 6.53914C17.2315 6.70835 17.0504 6.86752 16.86 7.0158C16.7066 7.13496 16.5838 7.18462 16.5019 7.16476L16.2666 7.1151C16.1331 7.03045 16.0239 6.91427 15.9494 6.77747C15.8582 6.61478 15.8025 6.43564 15.7857 6.25116V1.61367C15.8061 1.40893 15.8061 1.20274 15.7857 0.997989C15.7535 0.847961 15.7055 0.701545 15.6424 0.561052C15.5844 0.422894 15.4845 0.305132 15.3559 0.223419C15.1953 0.139995 15.0229 0.0797784 14.8443 0.0446722C14.2182 -0.0148907 13.5877 -0.0148907 12.9616 0.0446722C11.8363 -0.0569479 10.7013 0.0474765 9.61568 0.352514C9.41282 0.453501 9.23211 0.591779 9.0836 0.75966C8.90966 0.958267 8.88919 1.0675 9.01198 1.08736C9.24707 1.09824 9.47735 1.15586 9.68856 1.25664C9.89977 1.35742 10.0874 1.49922 10.2398 1.67325L10.3217 1.83214C10.4142 2.0359 10.4828 2.24908 10.5263 2.46769C10.5874 2.79606 10.6284 3.12765 10.6491 3.46072C10.69 4.02606 10.69 4.59348 10.6491 5.15882C10.6491 5.63548 10.557 6.0029 10.5161 6.26109C10.4665 6.50044 10.3729 6.72917 10.2398 6.93636C10.1955 7.04382 10.1407 7.14691 10.0761 7.2442L10.0045 7.31371C9.88305 7.35674 9.75516 7.38022 9.62591 7.38322C9.47205 7.34127 9.33138 7.26278 9.21662 7.15483C9.00308 7.00048 8.80751 6.824 8.63339 6.62852C8.38531 6.33712 8.15959 6.02845 7.95807 5.70499C7.66977 5.24549 7.40678 4.77147 7.17019 4.28495L6.93485 3.89766L6.35162 2.78546C6.11379 2.32023 5.90202 1.84287 5.71722 1.35548C5.6538 1.17952 5.53586 1.0269 5.37956 0.918546H5.30794C5.25443 0.857553 5.19244 0.804079 5.12376 0.75966C5.00502 0.71593 4.88138 0.685932 4.7554 0.670286L0.91834 0.700077C0.77256 0.688365 0.625887 0.707123 0.48821 0.755088C0.350534 0.803052 0.225054 0.879109 0.120232 0.978128H0.0076781C-0.00255937 1.05061 -0.00255937 1.12411 0.0076781 1.1966C0.0191868 1.32189 0.046683 1.44531 0.0895354 1.56402C0.655715 2.88807 1.26964 4.12937 1.93132 5.28791C2.58618 6.46963 3.15918 7.42295 3.64009 8.14786C4.12101 8.87278 4.66331 9.55798 5.15445 10.2035C5.6456 10.8489 6.03442 11.266 6.17767 11.4448L6.55626 11.8519L6.90415 12.1895C7.22683 12.4698 7.56868 12.7286 7.92737 12.9641C8.39965 13.2994 8.89163 13.6078 9.4008 13.8876C9.98161 14.1995 10.6003 14.4397 11.2426 14.6026C11.9109 14.8057 12.6094 14.8997 13.3095 14.8807H14.9262C15.2054 14.8784 15.4729 14.7717 15.6731 14.5828V14.5132C15.7177 14.4349 15.752 14.3515 15.7754 14.265C15.7856 14.1427 15.7856 14.0198 15.7754 13.8976C15.765 13.5444 15.7959 13.1913 15.8675 12.8449C15.9086 12.5997 15.9879 12.3619 16.1029 12.1399C16.1803 11.9906 16.2803 11.8533 16.3996 11.7327L16.6349 11.5341H16.7475C16.888 11.5053 17.0336 11.5092 17.1723 11.5455C17.311 11.5817 17.4389 11.6493 17.5456 11.7427C17.8627 11.971 18.1481 12.238 18.3949 12.5371C18.6609 12.8449 18.9883 13.2024 19.3567 13.5798C19.6657 13.9047 20.0086 14.1975 20.3799 14.4537L20.6664 14.6125C20.8944 14.7417 21.1385 14.8419 21.3929 14.9105C21.6417 14.9979 21.9095 15.0218 22.1705 14.98L25.803 14.8807C26.0866 14.8985 26.3699 14.8401 26.6215 14.7118C26.7017 14.6761 26.7738 14.6252 26.8335 14.5621C26.8933 14.499 26.9395 14.425 26.9694 14.3444C27.0102 14.1947 27.0102 14.0373 26.9694 13.8876C26.951 13.7615 26.9166 13.6381 26.8671 13.5202L26.7852 13.4705Z" />
  </symbol>

</svg>
